<svg xmlns="http://www.w3.org/2000/svg" viewBox="0 0 64 64"><defs><style>.cls-1{fill:#00aaa8;}.cls-2{fill:#d9d9d9;}.cls-3{fill:#f3f3f3;}.cls-4{fill:#00bebd;}.cls-5{fill:#50d9d7;}.cls-6{fill:#93e6e5;}.cls-7{fill:#fff;}</style></defs><title>Plant</title><g id="Plant"><path class="cls-1" d="M32,0,30.6,1.28a18,18,0,0,0-3.47,22.2L32,32l4.87-8.52A18,18,0,0,0,33.4,1.28Z"/><rect class="cls-2" x="13" y="32" width="38" height="4" rx="1"/><path class="cls-3" d="M45.14,64H18.86a2,2,0,0,1-2-1.86L15,36H49L47.13,62.14A2,2,0,0,1,45.14,64Z"/><path class="cls-4" d="M31,32H28A21,21,0,0,1,49,11h3A21,21,0,0,1,31,32Z"/><path class="cls-5" d="M33,32h3A21,21,0,0,0,15,11H12A21,21,0,0,0,33,32Z"/><path class="cls-6" d="M23,32h9A15,15,0,0,0,17,17H8A15,15,0,0,0,23,32Z"/><path class="cls-6" d="M41,32H32A15,15,0,0,1,47,17h9A15,15,0,0,1,41,32Z"/><rect class="cls-7" x="19" y="39" width="12" height="2"/><rect class="cls-7" x="19" y="43" width="8" height="2"/></g></svg>